<svg width="23" height="25" viewBox="0 0 23 25" fill="none" xmlns="http://www.w3.org/2000/svg">
<path d="M6.55312 12.5922C6.55312 11.9305 6.08848 11.5353 5.2692 11.5353C4.9348 11.5353 4.70864 11.5675 4.58984 11.5988V13.7239C4.73064 13.7553 4.90312 13.7666 5.13984 13.7666C6.01368 13.7666 6.55312 13.3287 6.55312 12.5922ZM11.6272 11.5562C11.2602 11.5562 11.0226 11.5884 10.8818 11.6206V16.3287C11.0226 16.3609 11.2488 16.3609 11.4538 16.3609C12.9428 16.3714 13.9143 15.56 13.9143 13.8415C13.9258 12.3467 13.0405 11.5562 11.6272 11.5562Z" fill="#3290FF"/>
<path d="M21.3481 8.79031H20.7514V5.94262C20.7509 5.92453 20.7492 5.9065 20.7462 5.88865C20.7471 5.77412 20.7062 5.66311 20.6309 5.57611L15.841 0.164541L15.8375 0.161058C15.7767 0.0957568 15.6992 0.04793 15.6131 0.0226353L15.5867 0.0139292C15.5502 0.00491081 15.5126 0.000234892 15.475 0H3.70319C3.16551 0 2.72903 0.432681 2.72903 0.963739V8.79031H2.13239C1.36327 8.79031 0.740234 9.40669 0.740234 10.1676V17.3308C0.740234 18.0908 1.36415 18.708 2.13239 18.708H2.72903V23.612C2.72903 24.1431 3.16551 24.5758 3.70319 24.5758H19.7773C20.3141 24.5758 20.7514 24.1431 20.7514 23.612V18.708H21.3481C22.1172 18.708 22.7402 18.0908 22.7402 17.3308V10.1676C22.7402 9.40669 22.1163 8.79031 21.3481 8.79031ZM3.70319 0.963739H14.9874V5.89474C14.9874 6.16114 15.2057 6.37618 15.475 6.37618H19.7782V8.79031H3.70319V0.963739ZM15.6624 13.7875C15.6624 15.1647 15.1555 16.1154 14.4524 16.7022C13.6868 17.3316 12.5217 17.6311 11.097 17.6311C10.2442 17.6311 9.64055 17.5771 9.22959 17.5249V10.4566C9.83415 10.3609 10.6218 10.3077 11.4534 10.3077C12.8341 10.3077 13.7299 10.5533 14.4313 11.0765C15.1872 11.631 15.6624 12.5173 15.6624 13.7875ZM2.95871 17.5571V10.4566C3.46559 10.3713 4.17839 10.3077 5.18159 10.3077C6.19623 10.3077 6.91959 10.5001 7.40447 10.8841C7.86823 11.2471 8.18063 11.8452 8.18063 12.5495C8.18063 13.2547 7.94391 13.8519 7.51183 14.2576C6.95039 14.7808 6.11967 15.0159 5.14815 15.0159C4.93255 15.0159 4.73807 15.0054 4.58759 14.9837V17.5571H2.95871ZM19.7773 23.3509H3.70319V18.708H19.7773V23.3509ZM21.1888 11.6955H18.393V13.34H21.0049V14.6642H18.393V17.5571H16.743V10.3609H21.1888V11.6955Z" fill="#3290FF"/>
</svg>
