<svg width="22" height="24" viewBox="0 0 22 24" fill="none" xmlns="http://www.w3.org/2000/svg">
<path d="M5.81289 12.2971C5.81289 11.651 5.34825 11.265 4.52897 11.265C4.19457 11.265 3.96841 11.2965 3.84961 11.3271V13.4024C3.99041 13.433 4.16289 13.4441 4.39961 13.4441C5.27345 13.4441 5.81289 13.0164 5.81289 12.2971ZM10.887 11.2854C10.52 11.2854 10.2824 11.3169 10.1416 11.3483V15.9462C10.2824 15.9776 10.5086 15.9776 10.7136 15.9776C12.2026 15.9878 13.1741 15.1954 13.1741 13.5172C13.1855 12.0574 12.3002 11.2854 10.887 11.2854Z" fill="#FFAC30"/>
<path d="M20.6078 8.58436H20.0112V5.80339C20.0107 5.78573 20.0089 5.76811 20.0059 5.75068C20.0069 5.63883 19.9659 5.53043 19.8906 5.44546L15.1008 0.160686L15.0973 0.157285C15.0365 0.0935133 14.9589 0.0468071 14.8729 0.0221049L14.8465 0.0136029C14.8099 0.00479575 14.7724 0.000229389 14.7347 0H2.96296C2.42528 0 1.9888 0.422544 1.9888 0.94116V8.58436H1.39216C0.62304 8.58436 0 9.1863 0 9.92936V16.9247C0 17.6669 0.62392 18.2697 1.39216 18.2697H1.9888V23.0588C1.9888 23.5775 2.42528 24 2.96296 24H19.037C19.5738 24 20.0112 23.5775 20.0112 23.0588V18.2697H20.6078C21.377 18.2697 22 17.6669 22 16.9247V9.92936C22 9.1863 21.3761 8.58436 20.6078 8.58436ZM2.96296 0.94116H14.2472V5.75663C14.2472 6.01679 14.4654 6.22679 14.7347 6.22679H19.0379V8.58436H2.96296V0.94116ZM14.9222 13.4644C14.9222 14.8095 14.4153 15.7379 13.7122 16.3109C12.9466 16.9256 11.7814 17.218 10.3567 17.218C9.504 17.218 8.90032 17.1653 8.48936 17.1143V10.2116C9.09392 10.1181 9.88152 10.0662 10.7131 10.0662C12.0938 10.0662 12.9897 10.306 13.691 10.817C14.447 11.3585 14.9222 12.224 14.9222 13.4644ZM2.21848 17.1458V10.2116C2.72536 10.1283 3.43816 10.0662 4.44136 10.0662C5.456 10.0662 6.17936 10.2541 6.66424 10.6291C7.128 10.9836 7.4404 11.5677 7.4404 12.2555C7.4404 12.9441 7.20368 13.5274 6.7716 13.9236C6.21016 14.4345 5.37944 14.6641 4.40792 14.6641C4.19232 14.6641 3.99784 14.6539 3.84736 14.6326V17.1458H2.21848ZM19.037 22.8038H2.96296V18.2697H19.037V22.8038ZM20.4486 11.4214H17.6528V13.0275H20.2646V14.3206H17.6528V17.1458H16.0028V10.1181H20.4486V11.4214Z" fill="#FFAC30"/>
<rect x="1.83887" y="9.65485" width="19.2995" height="7.9043" fill="#FFAC30"/>
<path d="M8.43798 14.9827H5.70198L5.19798 16.3777H4.33398L6.60198 10.1407H7.54698L9.80598 16.3777H8.94198L8.43798 14.9827ZM8.20398 14.3167L7.06998 11.1487L5.93598 14.3167H8.20398Z" fill="white"/>
<path d="M15.5464 11.9227C15.3724 11.5567 15.1204 11.2747 14.7904 11.0767C14.4604 10.8727 14.0764 10.7707 13.6384 10.7707C13.2004 10.7707 12.8044 10.8727 12.4504 11.0767C12.1024 11.2747 11.8264 11.5627 11.6224 11.9407C11.4244 12.3127 11.3254 12.7447 11.3254 13.2367C11.3254 13.7287 11.4244 14.1607 11.6224 14.5327C11.8264 14.9047 12.1024 15.1927 12.4504 15.3967C12.8044 15.5947 13.2004 15.6937 13.6384 15.6937C14.2504 15.6937 14.7544 15.5107 15.1504 15.1447C15.5464 14.7787 15.7774 14.2837 15.8434 13.6597H13.3414V12.9937H16.7164V13.6237C16.6684 14.1397 16.5064 14.6137 16.2304 15.0457C15.9544 15.4717 15.5914 15.8107 15.1414 16.0627C14.6914 16.3087 14.1904 16.4317 13.6384 16.4317C13.0564 16.4317 12.5254 16.2967 12.0454 16.0267C11.5654 15.7507 11.1844 15.3697 10.9024 14.8837C10.6264 14.3977 10.4884 13.8487 10.4884 13.2367C10.4884 12.6247 10.6264 12.0757 10.9024 11.5897C11.1844 11.0977 11.5654 10.7167 12.0454 10.4467C12.5254 10.1707 13.0564 10.0327 13.6384 10.0327C14.3044 10.0327 14.8924 10.1977 15.4024 10.5277C15.9184 10.8577 16.2934 11.3227 16.5274 11.9227H15.5464Z" fill="white"/>
</svg>
