<svg width="22" height="23" viewBox="0 0 22 23" fill="none" xmlns="http://www.w3.org/2000/svg">
<path d="M5.81289 11.7848C5.81289 11.1655 5.34825 10.7956 4.52897 10.7956C4.19457 10.7956 3.96841 10.8258 3.84961 10.8551V12.844C3.99041 12.8733 4.16289 12.8839 4.39961 12.8839C5.27345 12.8839 5.81289 12.4741 5.81289 11.7848ZM10.887 10.8152C10.52 10.8152 10.2824 10.8453 10.1416 10.8755V15.2817C10.2824 15.3119 10.5086 15.3119 10.7136 15.3119C12.2026 15.3217 13.1741 14.5623 13.1741 12.954C13.1855 11.555 12.3002 10.8152 10.887 10.8152Z" fill="#93D57C"/>
<path fill-rule="evenodd" clip-rule="evenodd" d="M20.0112 8.22668H20.6078C21.3761 8.22668 22 8.80354 22 9.51564V16.2195C22 16.9308 21.377 17.5085 20.6078 17.5085H20.0112V22.0981C20.0112 22.5951 19.5738 23 19.037 23H2.96296C2.42528 23 1.9888 22.5951 1.9888 22.0981V17.5085H1.39216C0.62392 17.5085 0 16.9308 0 16.2195V9.51564C0 8.80354 0.62304 8.22668 1.39216 8.22668H1.9888V0.901945C1.9888 0.404938 2.42528 0 2.96296 0H14.7347C14.7724 0.000219831 14.8099 0.00459593 14.8465 0.0130361L14.8729 0.0211839C14.9589 0.0448568 15.0365 0.0896169 15.0973 0.150731L15.1008 0.15399L19.8906 5.21857C19.9659 5.29999 20.0069 5.40388 20.0059 5.51107C20.0089 5.52777 20.0107 5.54465 20.0112 5.56158V8.22668ZM14.2472 0.901945H2.96296V8.22668H19.0379V5.96734H14.7347C14.4654 5.96734 14.2472 5.76609 14.2472 5.51677V0.901945ZM2.96296 21.8536H19.037V17.5085H2.96296V21.8536Z" fill="#93D57C"/>
<path d="M12.6499 16.0459L11.1559 13.5877H10.1659V16.0459H9.34686V10.0342H11.3719C11.8459 10.0342 12.2449 10.1119 12.5689 10.2671C12.8989 10.4224 13.1449 10.6322 13.3069 10.8967C13.4689 11.1612 13.5499 11.4631 13.5499 11.8024C13.5499 12.2164 13.4239 12.5815 13.1719 12.8977C12.9259 13.214 12.5539 13.4239 12.0559 13.5274L13.6309 16.0459H12.6499ZM10.1659 12.9581H11.3719C11.8159 12.9581 12.1489 12.8546 12.3709 12.6476C12.5929 12.4349 12.7039 12.1531 12.7039 11.8024C12.7039 11.4459 12.5929 11.1699 12.3709 10.9744C12.1549 10.7789 11.8219 10.6811 11.3719 10.6811H10.1659V12.9581Z" fill="white"/>
</svg>
