<svg width="20" height="20" viewBox="0 0 20 20" fill="none" xmlns="http://www.w3.org/2000/svg">
<path d="M5.05467 10.2476C5.05467 9.70917 4.65064 9.38751 3.93822 9.38751C3.64744 9.38751 3.45078 9.41373 3.34747 9.43923V11.1687C3.46991 11.1942 3.61989 11.2034 3.82573 11.2034C4.58559 11.2034 5.05467 10.847 5.05467 10.2476ZM9.46692 9.40452C9.14782 9.40452 8.94121 9.43073 8.81878 9.45694V13.2885C8.94121 13.3147 9.13787 13.3147 9.31617 13.3147C10.6109 13.3232 11.4557 12.6629 11.4557 11.2643C11.4657 10.0478 10.6959 9.40452 9.46692 9.40452Z" fill="#2481D3"/>
<path d="M17.9199 7.15364H17.401V4.83616C17.4006 4.82144 17.3991 4.80676 17.3965 4.79223C17.3973 4.69903 17.3617 4.60869 17.2962 4.53789L13.1311 0.133905L13.1281 0.131071C13.0752 0.0779278 13.0078 0.0390059 12.9329 0.0184208L12.91 0.0113357C12.8782 0.00399646 12.8456 0.000191158 12.8128 0H2.57649C2.10894 0 1.72939 0.35212 1.72939 0.7843V7.15364H1.21057C0.541774 7.15364 0 7.65525 0 8.27447V14.1039C0 14.7224 0.542539 15.2248 1.21057 15.2248H1.72939V19.2157C1.72939 19.6479 2.10894 20 2.57649 20H16.5539C17.0207 20 17.401 19.6479 17.401 19.2157V15.2248H17.9199C18.5887 15.2248 19.1304 14.7224 19.1304 14.1039V8.27447C19.1304 7.65525 18.5879 7.15364 17.9199 7.15364ZM2.57649 0.7843H12.3889V4.79719C12.3889 5.01399 12.5786 5.18899 12.8128 5.18899H16.5547V7.15364H2.57649V0.7843ZM12.9758 11.2204C12.9758 12.3412 12.535 13.1149 11.9236 13.5924C11.2579 14.1046 10.2447 14.3484 9.00584 14.3484C8.26435 14.3484 7.73941 14.3044 7.38205 14.2619V8.50969C7.90776 8.43175 8.59263 8.38854 9.31576 8.38854C10.5164 8.38854 11.2954 8.58833 11.9053 9.01413C12.5626 9.46544 12.9758 10.1867 12.9758 11.2204ZM1.92911 14.2881V8.50969C2.36988 8.44026 2.9897 8.38854 3.86205 8.38854C4.74435 8.38854 5.37336 8.54511 5.79499 8.85756C6.19826 9.153 6.46991 9.63973 6.46991 10.2129C6.46991 10.7868 6.26407 11.2728 5.88835 11.603C5.40014 12.0288 4.67777 12.2201 3.83297 12.2201C3.6455 12.2201 3.47638 12.2116 3.34553 12.1938V14.2881H1.92911ZM16.5539 19.0032H2.57649V15.2248H16.5539V19.0032ZM17.7814 9.51787H15.3503V10.8562H17.6214V11.9338H15.3503V14.2881H13.9155V8.43175H17.7814V9.51787Z" fill="#2481D3"/>
<rect x="1.59863" y="8.04572" width="16.7822" height="6.58691" fill="#2481D3"/>
<path d="M9.285 8.4581V13.6481H8.57282V9.7781L6.77282 13.6481H6.27195L4.46413 9.7706V13.6481H3.75195V8.4581H4.51891L6.52239 12.7481L8.52587 8.4581H9.285Z" fill="white"/>
<path d="M14.625 9.9356C14.4737 9.6306 14.2545 9.3956 13.9676 9.2306C13.6806 9.0606 13.3467 8.9756 12.9658 8.9756C12.585 8.9756 12.2406 9.0606 11.9328 9.2306C11.6302 9.3956 11.3902 9.6356 11.2128 9.9506C11.0406 10.2606 10.9545 10.6206 10.9545 11.0306C10.9545 11.4406 11.0406 11.8006 11.2128 12.1106C11.3902 12.4206 11.6302 12.6606 11.9328 12.8306C12.2406 12.9956 12.585 13.0781 12.9658 13.0781C13.498 13.0781 13.9363 12.9256 14.2806 12.6206C14.625 12.3156 14.8258 11.9031 14.8832 11.3831H12.7076V10.8281H15.6423V11.3531C15.6006 11.7831 15.4597 12.1781 15.2197 12.5381C14.9797 12.8931 14.6641 13.1756 14.2728 13.3856C13.8815 13.5906 13.4458 13.6931 12.9658 13.6931C12.4597 13.6931 11.998 13.5806 11.5806 13.3556C11.1632 13.1256 10.8319 12.8081 10.5867 12.4031C10.3467 11.9981 10.2267 11.5406 10.2267 11.0306C10.2267 10.5206 10.3467 10.0631 10.5867 9.6581C10.8319 9.2481 11.1632 8.9306 11.5806 8.7056C11.998 8.4756 12.4597 8.3606 12.9658 8.3606C13.545 8.3606 14.0563 8.4981 14.4997 8.7731C14.9484 9.0481 15.2745 9.4356 15.478 9.9356H14.625Z" fill="white"/>
</svg>
